<svg width="15" height="17" viewBox="0 0 15 17" fill="none" xmlns="http://www.w3.org/2000/svg">
<path d="M9.2564 14.5427C9.50021 14.7413 9.53885 15.1023 9.3427 15.3491C9.1977 15.5316 9.03015 15.6949 8.85258 15.8288C8.25442 16.2981 7.49395 16.5109 6.73871 16.421C5.98281 16.3309 5.29329 15.9448 4.82273 15.347C4.62774 15.0992 4.66808 14.7384 4.91282 14.541C5.15756 14.3436 5.51402 14.3845 5.70901 14.6322C5.99279 14.9928 6.41104 15.227 6.87114 15.2818C7.33192 15.3367 7.79543 15.207 8.16684 14.9156C8.27636 14.833 8.37478 14.7371 8.45979 14.6301C8.65594 14.3833 9.01259 14.3442 9.2564 14.5427ZM1.48314 5.7542L1.49327 5.26439C1.5005 5.05489 1.5117 4.86041 1.52813 4.67008C1.7745 2.00957 4.31392 0 7.08356 0H7.14219C9.91033 0 12.4505 2.00817 12.7053 4.67371C12.7199 4.84315 12.7262 4.99366 12.7281 5.20533L12.7288 5.85291C12.7294 5.9119 12.7304 5.96378 12.7319 6.01215L12.7395 6.17347L12.7762 6.32729C12.8918 6.7557 13.0951 7.15623 13.3735 7.50393L13.4974 7.64964L13.5481 7.71475C13.882 8.21375 14.0727 8.7944 14.1 9.41975L14.0992 9.75129C14.0759 10.4919 13.804 11.2072 13.3058 11.8033C12.6459 12.5036 11.7517 12.9387 10.8014 13.0261C8.34723 13.2926 5.87119 13.2926 3.42389 13.0268C2.46702 12.9348 1.57547 12.501 0.886744 11.7738C0.378868 11.1546 0.1089 10.375 0.125743 9.58721L0.126438 9.39135C0.15578 8.79235 0.345342 8.21225 0.675256 7.71108L0.730475 7.64004C1.11578 7.21762 1.37921 6.70064 1.49351 6.14329L1.48114 6.19335L1.48314 5.7542ZM7.14219 1.14706H7.08356C4.86542 1.14706 2.8444 2.74639 2.65667 4.77351C2.64706 4.8849 2.6394 4.99982 2.63341 5.12077L2.62021 5.50417L2.61485 6.25987L2.60302 6.37644C2.44685 7.13794 2.08749 7.84321 1.56302 8.41818L1.60352 8.37124L1.53109 8.49112C1.3954 8.73561 1.30786 9.00114 1.27327 9.26316L1.25891 9.41975L1.25878 9.59952C1.24767 10.123 1.42456 10.6339 1.73105 11.0099C2.20384 11.5076 2.84341 11.8188 3.53793 11.8856C5.91171 12.1434 8.30671 12.1434 10.6896 11.8847C11.3766 11.8214 12.0157 11.5104 12.4628 11.0375C12.8011 10.6317 12.9799 10.1193 12.9668 9.57993L12.9675 9.44557C12.9502 9.05791 12.8267 8.68198 12.6099 8.35803L12.6224 8.37888L12.5091 8.24595C12.1183 7.7636 11.8344 7.20412 11.6763 6.60439L11.623 6.37768L11.6124 6.3015C11.6044 6.19021 11.5997 6.09131 11.5973 5.97237L11.595 5.2287C11.5935 5.03959 11.5884 4.91228 11.5769 4.77885C11.3826 2.7463 9.3597 1.14706 7.14219 1.14706Z" fill="#F9F9F9"/>
</svg>
