<svg width="14" height="12" viewBox="0 0 14 12" fill="none" xmlns="http://www.w3.org/2000/svg">
<path d="M10.123 0.440186C9.03854 0.440186 8.08783 0.923767 7.3737 1.83868C7.27846 1.9607 7.19357 2.08277 7.11832 2.201C7.04308 2.08275 6.95818 1.9607 6.86295 1.83868C6.14882 0.923767 5.1981 0.440186 4.1136 0.440186C2.06489 0.440186 0.599609 2.1556 0.599609 4.21401C0.599609 6.5677 2.52866 8.78595 6.85444 11.4065C6.93554 11.4556 7.02693 11.4802 7.11832 11.4802C7.20971 11.4802 7.3011 11.4556 7.3822 11.4065C11.708 8.78597 13.637 6.56772 13.637 4.21404C13.637 2.15669 12.1729 0.440186 10.123 0.440186ZM11.2729 7.14476C10.3723 8.14961 9.01142 9.20768 7.11832 10.3741C5.22522 9.20768 3.86431 8.14961 2.96374 7.14478C2.0583 6.13448 1.61816 5.17583 1.61816 4.21404C1.61816 2.73195 2.61975 1.45873 4.1136 1.45873C4.87436 1.45873 5.52302 1.78951 6.04159 2.44189C6.45624 2.96361 6.63095 3.50235 6.63217 3.5062C6.6985 3.71895 6.89549 3.86386 7.11835 3.86386C7.34121 3.86386 7.53819 3.71897 7.60453 3.5062C7.60613 3.50105 7.77559 2.97912 8.17662 2.46537C8.69799 1.7974 9.35287 1.45871 10.123 1.45871C11.6185 1.45871 12.6185 2.73314 12.6185 4.21401C12.6185 5.1758 12.1783 6.13446 11.2729 7.14476Z" fill="#0C0C0C"/>
</svg>
