<svg width="17" height="16" viewBox="0 0 17 16" fill="none" xmlns="http://www.w3.org/2000/svg">
<path d="M3.82356 0.260115C5.27333 -0.206224 6.8421 -0.038412 8.15472 0.706394L8.37202 0.836792L8.59323 0.705662C9.83771 0.00107346 11.314 -0.187203 12.7032 0.194891L12.9224 0.260163C15.9524 1.23568 17.309 4.54411 16.2898 7.70975C15.7788 9.18234 14.9407 10.5175 13.8344 11.618C12.329 13.08 10.6695 14.371 8.888 15.4665L8.69888 15.584C8.50684 15.7034 8.26413 15.7054 8.07011 15.5893L7.86752 15.468C6.08359 14.371 4.42409 13.08 2.91353 11.6129C1.81241 10.5175 0.974312 9.18234 0.458976 7.69685C-0.556562 4.54219 0.794501 1.23533 3.82356 0.260115ZM7.85909 1.94227C6.78322 1.20689 5.43248 1.00929 4.19352 1.40783C1.84716 2.16325 0.783414 4.76686 1.60346 7.31474C2.05448 8.61444 2.79392 9.7924 3.7598 10.7533C5.20184 12.1538 6.7914 13.3904 8.49383 14.4374L8.37604 14.3631L8.76203 14.1204C10.1096 13.2503 11.3788 12.2629 12.5525 11.1722L12.9881 10.7584C13.9592 9.7924 14.6986 8.61444 15.1453 7.32764C15.9689 4.76929 14.9005 2.16384 12.5529 1.40802C11.252 0.990677 9.83196 1.22972 8.73469 2.05116C8.52403 2.20887 8.23534 2.21192 8.02139 2.05869L7.85909 1.94227ZM11.568 3.28659C12.6581 3.63455 13.4312 4.61059 13.5277 5.75728C13.5556 6.08908 13.3091 6.38066 12.977 6.40855C12.6449 6.43644 12.3531 6.19008 12.3252 5.85829C12.2695 5.19588 11.8247 4.63431 11.2008 4.43518C10.8833 4.33386 10.7082 3.9946 10.8096 3.67743C10.911 3.36025 11.2505 3.18527 11.568 3.28659Z" fill="#F5F5F5"/>
</svg>
