<svg width="24" height="22" viewBox="0 0 24 22" fill="none" xmlns="http://www.w3.org/2000/svg">
<path d="M22.3552 2.58985H8.96883C8.6008 1.49679 7.56692 0.707062 6.35133 0.707062C5.13574 0.707062 4.10186 1.49679 3.73383 2.58985H1.64432C1.15893 2.58985 0.765411 2.98337 0.765411 3.46876C0.765411 3.95415 1.15893 4.34767 1.64432 4.34767H3.73389C4.10192 5.44073 5.1358 6.23046 6.35139 6.23046C7.56697 6.23046 8.60086 5.44073 8.96889 4.34767H22.3553C22.8407 4.34767 23.2342 3.95415 23.2342 3.46876C23.2342 2.98337 22.8407 2.58985 22.3552 2.58985ZM6.35133 4.47265C5.79779 4.47265 5.34744 4.0223 5.34744 3.46876C5.34744 2.91523 5.79779 2.46487 6.35133 2.46487C6.90486 2.46487 7.35522 2.91523 7.35522 3.46876C7.35522 4.0223 6.90486 4.47265 6.35133 4.47265Z" fill="#EDEDED"/>
<path d="M22.3552 10.1211H20.2656C19.8976 9.02801 18.8637 8.23828 17.6481 8.23828C16.4326 8.23828 15.3987 9.02801 15.0307 10.1211H1.64432C1.15893 10.1211 0.765411 10.5146 0.765411 11C0.765411 11.4854 1.15893 11.8789 1.64432 11.8789H15.0307C15.3987 12.972 16.4327 13.7617 17.6482 13.7617C18.8637 13.7617 19.8977 12.972 20.2657 11.8789H22.3553C22.8407 11.8789 23.2342 11.4854 23.2342 11C23.2342 10.5146 22.8407 10.1211 22.3552 10.1211ZM17.6482 12.0039C17.0947 12.0039 16.6443 11.5535 16.6443 11C16.6443 10.4464 17.0947 9.99609 17.6482 9.99609C18.2017 9.99609 18.6521 10.4464 18.6521 11C18.6521 11.5535 18.2017 12.0039 17.6482 12.0039Z" fill="#EDEDED"/>
<path d="M22.3552 17.6523H12.7345C12.3664 16.5592 11.3326 15.7695 10.117 15.7695C8.90139 15.7695 7.8675 16.5592 7.49947 17.6523H1.64432C1.15893 17.6523 0.765411 18.0458 0.765411 18.5312C0.765411 19.0166 1.15893 19.4101 1.64432 19.4101H7.49947C7.8675 20.5032 8.90139 21.2929 10.117 21.2929C11.3326 21.2929 12.3664 20.5032 12.7345 19.4101H22.3553C22.8407 19.4101 23.2342 19.0166 23.2342 18.5312C23.2342 18.0458 22.8407 17.6523 22.3552 17.6523ZM10.117 19.5352C9.56344 19.5352 9.11309 19.0848 9.11309 18.5313C9.11309 17.9777 9.56344 17.5274 10.117 17.5274C10.6705 17.5274 11.1209 17.9777 11.1209 18.5312C11.1209 19.0848 10.6705 19.5352 10.117 19.5352Z" fill="#EDEDED"/>
</svg>
