<svg width="9" height="12" viewBox="0 0 9 12" fill="none" xmlns="http://www.w3.org/2000/svg">
<path d="M4.66071 0H0.517857C0.231822 0 0 0.236037 0 0.527273V11.0727C0 11.364 0.231822 11.6 0.517857 11.6H2.58929C2.87532 11.6 3.10714 11.364 3.10714 11.0727V7.38182H4.66071C6.65959 7.38182 8.28571 5.72613 8.28571 3.69091C8.28571 1.65569 6.65959 0 4.66071 0ZM4.66071 6.32727H2.58929C2.30325 6.32727 2.07143 6.56331 2.07143 6.85455V10.5455H1.03571V1.05455H4.66071C6.08846 1.05455 7.25 2.2372 7.25 3.69091C7.25 5.14462 6.08846 6.32727 4.66071 6.32727Z" fill="#C2C2C2"/>
<path d="M4.75153 2.07143H2.93903C2.68875 2.07143 2.4859 2.28779 2.4859 2.55476V4.48809C2.4859 4.75506 2.68875 4.97143 2.93903 4.97143H4.75153C5.50107 4.97143 6.1109 4.32094 6.1109 3.52143C6.1109 2.72191 5.50107 2.07143 4.75153 2.07143ZM4.75153 4.00476H3.39215V3.03809H4.75153C5.00133 3.03809 5.20465 3.25496 5.20465 3.52143C5.20465 3.78789 5.00133 4.00476 4.75153 4.00476Z" fill="#C2C2C2"/>
</svg>
