<svg width="13" height="13" viewBox="0 0 13 13" fill="none" xmlns="http://www.w3.org/2000/svg">
<path d="M13.6489 7.93258L13.0934 8.25831C12.8592 8.39571 12.5691 8.39413 12.3363 8.25415L11.8171 7.94205C11.3081 7.63595 10.6737 7.63244 10.1613 7.93291L9.60643 8.25831C9.37212 8.39571 9.08205 8.3941 8.84926 8.25415L8.33011 7.94205C8.27779 7.91058 8.22406 7.88249 8.16933 7.85741V1.82069C8.16936 1.30134 8.59185 0.878908 9.1112 0.878908C9.63055 0.878908 10.053 1.3014 10.053 1.82072V2.81426H10.9319V1.82069C10.9319 0.816769 10.1152 0 9.11123 0C8.10725 0 7.29051 0.816769 7.29051 1.82069V5.31587H3.59626V1.82069C3.59626 1.30137 4.01875 0.878908 4.53806 0.878908C5.05738 0.878908 5.47987 1.3014 5.47987 1.82072V2.81426H6.35878V1.82069C6.35878 0.816769 5.54201 0 4.53806 0C3.53412 0 2.71738 0.816769 2.71738 1.82069V8.2085L2.63256 8.25825C2.39828 8.39565 2.10812 8.39404 1.87538 8.25409L1.35967 7.94404L0.906769 8.69729L1.42248 9.00737C1.93114 9.31323 2.56518 9.31672 3.07714 9.01645L3.63203 8.69105C3.86667 8.55344 4.15723 8.55505 4.39035 8.69524L4.90949 9.00734C5.41815 9.31323 6.05216 9.31672 6.56412 9.01645L7.11898 8.69105C7.35365 8.55344 7.64421 8.55505 7.8773 8.69524L8.39644 9.00734C8.6534 9.16185 8.94236 9.2392 9.23143 9.2392C9.51453 9.2392 9.79777 9.16502 10.0511 9.01645L10.606 8.69105C10.8407 8.55347 11.1312 8.55508 11.3643 8.69524L11.8835 9.00737C12.3921 9.3132 13.0262 9.31672 13.5381 9.01645L14.0936 8.69073L13.6489 7.93258ZM7.29051 7.72293C7.07667 7.75009 6.86691 7.82002 6.6744 7.93293L6.11951 8.25834C5.88523 8.39574 5.59513 8.39413 5.36233 8.25418L4.84319 7.94207C4.46312 7.71356 4.01312 7.65376 3.59623 7.76322V6.19478H3.59626H7.29051V7.72293Z" fill="#C2C2C2"/>
<path d="M13.6488 10.8662L13.0933 11.1919C12.8591 11.3293 12.569 11.3277 12.3361 11.1878L11.817 10.8756C11.308 10.5696 10.6735 10.5661 10.1612 10.8665L9.60631 11.1919C9.37205 11.3293 9.08189 11.3277 8.84916 11.1877L8.32996 10.8756C7.82098 10.5695 7.1865 10.5661 6.67421 10.8665L6.11933 11.1919C5.88504 11.3293 5.59491 11.3277 5.36218 11.1877L4.84301 10.8755C4.33394 10.5695 3.69949 10.566 3.18723 10.8665L2.63235 11.1918C2.39806 11.3292 2.10793 11.3276 1.8752 11.1877L1.35949 10.8776L0.906555 11.6308L1.42236 11.9409C1.93101 12.2467 2.56503 12.2502 3.07699 11.95L3.63187 11.6246C3.86648 11.487 4.15705 11.4886 4.39017 11.6288L4.90934 11.9409C5.41802 12.2468 6.05203 12.2502 6.56397 11.95L7.11885 11.6246C7.35346 11.4869 7.64403 11.4886 7.87712 11.6288L8.39632 11.9409C8.65328 12.0954 8.94223 12.1728 9.23128 12.1728C9.5144 12.1728 9.79762 12.0985 10.051 11.95L10.6059 11.6246C10.8405 11.487 11.131 11.4885 11.3642 11.6288L11.8834 11.9409C12.3921 12.2468 13.0261 12.2502 13.538 11.95L14.0934 11.6243L13.6488 10.8662Z" fill="#C2C2C2"/>
<path d="M13.6489 13.6933L13.0935 14.0191C12.8592 14.1565 12.5691 14.1549 12.3363 14.0149L11.8171 13.7028C11.3081 13.3968 10.6737 13.3933 10.1613 13.6937L9.60646 14.0191C9.37217 14.1565 9.08211 14.1548 8.84928 14.0149L8.33011 13.7028C7.82114 13.3967 7.18665 13.3933 6.67437 13.6937L6.11948 14.0191C5.8852 14.1565 5.5951 14.1549 5.3623 14.0149L4.84316 13.7028C4.3341 13.3967 3.69965 13.3933 3.18739 13.6937L2.6325 14.0191C2.39822 14.1565 2.10809 14.1549 1.87533 14.0149L1.35967 13.7048L0.906769 14.458L1.42248 14.7681C1.93114 15.074 2.56518 15.0775 3.07711 14.7772L3.632 14.4518C3.86661 14.3143 4.15718 14.3158 4.39029 14.456L4.90943 14.7681C5.41809 15.074 6.05213 15.0775 6.56406 14.7772L7.11895 14.4518C7.35356 14.3141 7.6441 14.3158 7.87724 14.456L8.39638 14.7681C8.65338 14.9226 8.9423 14.9999 9.2314 14.9999C9.5145 14.9999 9.79774 14.9257 10.0511 14.7772L10.606 14.4518C10.8406 14.3142 11.1312 14.3158 11.3642 14.4559L11.8834 14.7681C12.3921 15.0739 13.0261 15.0774 13.5381 14.7772L14.0935 14.4514L13.6489 13.6933Z" fill="#C2C2C2"/>
</svg>
