<svg width="16" height="15" viewBox="0 0 16 15" fill="none" xmlns="http://www.w3.org/2000/svg">
<path fill-rule="evenodd" clip-rule="evenodd" d="M10.2465 8.75001H9.73945L9.55972 8.58126C10.1888 7.86876 10.5675 6.94376 10.5675 5.93751C10.5675 3.69377 8.69959 1.87502 6.3952 1.87502C4.09081 1.87502 2.2229 3.69377 2.2229 5.93751C2.2229 8.18126 4.09081 10 6.3952 10C7.42864 10 8.37864 9.63126 9.1104 9.01876L9.28371 9.19376V9.68751L12.4932 12.8063L13.4496 11.875L10.2465 8.75001ZM6.39509 8.75004C4.79677 8.75004 3.50657 7.49379 3.50657 5.93754C3.50657 4.38129 4.79677 3.12504 6.39509 3.12504C7.9934 3.12504 9.2836 4.38129 9.2836 5.93754C9.2836 7.49379 7.9934 8.75004 6.39509 8.75004Z" fill="white" fill-opacity="0.6"/>
</svg>
