<svg width="8" height="8" viewBox="0 0 8 8" fill="none" xmlns="http://www.w3.org/2000/svg">
<path d="M7.97886 2.87201C7.95372 2.79796 7.90744 2.7329 7.84574 2.68485C7.78403 2.63681 7.70961 2.60788 7.63166 2.60164L5.35124 2.42047L4.36444 0.236356C4.33301 0.16601 4.28189 0.106262 4.21725 0.0643215C4.15262 0.0223815 4.07722 4.2346e-05 4.00016 6.01434e-08C3.92311 -4.22257e-05 3.84769 0.0222142 3.783 0.0640832C3.71832 0.105952 3.66714 0.165645 3.63563 0.235956L2.64883 2.42047L0.368413 2.60164C0.291794 2.60771 0.218547 2.63572 0.157433 2.68232C0.0963199 2.72893 0.049928 2.79215 0.0238079 2.86442C-0.00231216 2.93669 -0.00705442 3.01496 0.0101485 3.08986C0.0273515 3.16476 0.0657712 3.23311 0.120811 3.28675L1.80602 4.92933L1.21002 7.50979C1.19192 7.5879 1.19772 7.66965 1.22667 7.74442C1.25561 7.81919 1.30636 7.88354 1.37234 7.92911C1.43832 7.97468 1.51647 7.99938 1.59665 7.99999C1.67684 8.0006 1.75536 7.9771 1.82202 7.93254L4.00003 6.48073L6.17805 7.93254C6.24618 7.97777 6.32654 8.00105 6.4083 7.99926C6.49007 7.99747 6.56932 7.97068 6.63541 7.92251C6.70149 7.87433 6.75124 7.80708 6.77796 7.72979C6.80467 7.6525 6.80708 7.56889 6.78485 7.49019L6.05325 4.93053L7.86766 3.29795C7.98646 3.19076 8.03006 3.02359 7.97886 2.87201Z" fill="#FFC701"/>
</svg>
