<svg width="13" height="16" viewBox="0 0 13 16" fill="none" xmlns="http://www.w3.org/2000/svg">
<path d="M6.2036 9.91279L6.45375 9.91389C10.1704 9.94709 12.2822 10.7335 12.2822 12.8414C12.2822 14.8995 10.2712 15.6845 6.70018 15.7488L6.2036 15.7532C2.33174 15.7532 0.125 14.9793 0.125 12.8246C0.125 10.6724 2.32199 9.91279 6.2036 9.91279ZM6.2036 11.1065L5.94376 11.1078C2.86709 11.1382 1.28254 11.716 1.28254 12.8246C1.28254 13.9707 2.96137 14.5595 6.2036 14.5595C9.44995 14.5595 11.1247 13.9803 11.1247 12.8414C11.1247 11.6953 9.44583 11.1065 6.2036 11.1065ZM6.2036 0C8.48025 0 10.3075 1.8843 10.3075 4.23209C10.3075 6.57935 8.48001 8.46419 6.2036 8.46419C3.92772 8.46419 2.09976 6.57909 2.09976 4.23209C2.09976 1.88455 3.92748 0 6.2036 0ZM6.2036 1.19371C4.56673 1.19371 3.25729 2.54386 3.25729 4.23209C3.25729 5.91983 4.56701 7.27048 6.2036 7.27048C7.84068 7.27048 9.14992 5.92012 9.14992 4.23209C9.14992 2.54356 7.84096 1.19371 6.2036 1.19371Z" fill="#FAFAFA"/>
</svg>
