<svg width="16" height="13" viewBox="0 0 16 13" fill="none" xmlns="http://www.w3.org/2000/svg">
<path d="M13.8924 4.50914L11.3321 0.853181L12.5512 0L15.1108 3.65596L13.8924 4.50914Z" fill="#C2C2C2"/>
<path d="M12.4912 6.39845L11.2118 4.56936L5.11825 8.83601L6.39765 10.6636L5.17924 11.5175L1.76652 6.64243L2.98492 5.78925L4.26432 7.6176L10.3578 3.35095L9.07844 1.5226L10.2968 0.669418L13.7096 5.54378L12.4912 6.39771V6.39845Z" fill="#C2C2C2"/>
<path d="M14.2576 2.43674L15.4761 1.58356L14.6229 0.365158L13.4045 1.21834L14.2576 2.43674Z" fill="#C2C2C2"/>
<path d="M4.14412 11.3351L1.58384 7.67911L0.365433 8.53229L2.92498 12.1882L4.14412 11.3351V11.3351Z" fill="#C2C2C2"/>
<path d="M2.07159 10.9702L0.853181 11.8233L0 10.6049L1.21841 9.75175L2.07159 10.9702Z" fill="#C2C2C2"/>
</svg>
