<svg width="18" height="14" viewBox="0 0 18 14" fill="none" xmlns="http://www.w3.org/2000/svg">
<path d="M13.2359 9.30152C12.1066 8.26424 10.6317 7.63636 9.0161 7.63636C7.40052 7.63636 5.92559 8.26424 4.79429 9.30364C4.76304 9.33337 4.74392 9.37472 4.74092 9.41901C4.73793 9.4633 4.75129 9.50709 4.77821 9.54121L5.50161 10.4512C5.55988 10.5233 5.66236 10.5318 5.73068 10.4703C6.60679 9.65576 7.75618 9.16364 9.0161 9.16364C10.276 9.16364 11.4254 9.65576 12.3015 10.4682C12.3698 10.5297 12.4723 10.5212 12.5306 10.4491L13.254 9.53909C13.3102 9.46909 13.3022 9.36303 13.2359 9.30152ZM15.595 6.3297C13.8126 4.76212 11.5198 3.81818 9.0161 3.81818C6.51235 3.81818 4.21959 4.76212 2.43522 6.3297C2.40257 6.35876 2.38214 6.40027 2.37838 6.44517C2.37461 6.49008 2.38782 6.53473 2.41512 6.56939L3.13852 7.47939C3.19478 7.55151 3.29726 7.56 3.36357 7.50061C4.89677 6.15576 6.86802 5.34545 9.0161 5.34545C11.1642 5.34545 13.1354 6.15576 14.6666 7.50061C14.7349 7.56 14.8354 7.55151 14.8917 7.47939L15.6151 6.56939C15.6713 6.49727 15.6633 6.38909 15.595 6.3297ZM17.94 3.38121C15.5005 1.26848 12.3779 0 8.97591 0C5.59605 0 2.49349 1.25152 0.0600711 3.33879C0.0433528 3.35297 0.0294909 3.37053 0.0193019 3.39045C0.009113 3.41037 0.00280293 3.43225 0.000743184 3.45478C-0.00131656 3.47731 0.000915705 3.50005 0.00730857 3.52166C0.0137014 3.54327 0.0241256 3.56331 0.0379673 3.58061L0.761362 4.49061C0.817626 4.56061 0.918097 4.57121 0.984408 4.51394C3.16866 2.64515 5.9477 1.52727 8.97591 1.52727C12.0262 1.52727 14.8233 2.66212 17.0136 4.55424C17.0819 4.61364 17.1824 4.60303 17.2387 4.53091L17.9621 3.62091C18.0203 3.54879 18.0103 3.44061 17.94 3.38121ZM7.70997 12.6424C7.70997 13.0025 7.84546 13.3478 8.08664 13.6024C8.32782 13.857 8.65492 14 8.996 14C9.33708 14 9.66419 13.857 9.90536 13.6024C10.1465 13.3478 10.282 13.0025 10.282 12.6424C10.282 12.2824 10.1465 11.9371 9.90536 11.6825C9.66419 11.4279 9.33708 11.2848 8.996 11.2848C8.65492 11.2848 8.32782 11.4279 8.08664 11.6825C7.84546 11.9371 7.70997 12.2824 7.70997 12.6424Z" fill="#C4C4C4"/>
</svg>
